<?xml version="1.0" standalone="no"?><!DOCTYPE svg PUBLIC "-//W3C//DTD SVG 1.1//EN" "http://www.w3.org/Graphics/SVG/1.1/DTD/svg11.dtd"><svg t="1693649653413" class="icon" viewBox="0 0 1024 1024" version="1.1" xmlns="http://www.w3.org/2000/svg" p-id="9424" xmlns:xlink="http://www.w3.org/1999/xlink" width="200" height="200"><path d="M512 0A422.791082 422.791082 0 0 0 89.208918 422.791082c0 179.263419 249.869529 457.882742 365.291495 576.687035a79.907514 79.907514 0 0 0 114.999174 0C684.921552 880.673823 934.791082 602.0545 934.791082 422.791082A422.791082 422.791082 0 0 0 512 0z m0 591.907514a211.395541 211.395541 0 1 1 211.395541-211.39554 211.395541 211.395541 0 0 1-211.395541 211.39554z" fill="#F55E55" p-id="9425"></path><path d="M512 380.511974m-126.837325 0a126.837325 126.837325 0 1 0 253.67465 0 126.837325 126.837325 0 1 0-253.67465 0Z" fill="#F9BBB8" p-id="9426"></path></svg>