<?xml version="1.0" standalone="no"?><!DOCTYPE svg PUBLIC "-//W3C//DTD SVG 1.1//EN" "http://www.w3.org/Graphics/SVG/1.1/DTD/svg11.dtd"><svg t="1693576043155" class="icon" viewBox="0 0 1024 1024" version="1.1" xmlns="http://www.w3.org/2000/svg" p-id="21854" xmlns:xlink="http://www.w3.org/1999/xlink" width="200" height="200"><path d="M642.685145 92.923019a437.399146 437.399146 0 0 1 73.288657 30.32634l15.06597 98.269008 9.719981 62.013479 62.013479 9.719981 98.269008 14.968771a438.176744 438.176744 0 0 1 30.423541 73.288657l-58.903085 80.189843-37.130328 50.446702 37.130328 50.543901 58.805885 80.189843a434.385952 434.385952 0 0 1-30.326341 73.288657l-98.657807 14.871571-61.916279 9.719981-9.719981 62.013479-14.871571 97.977409a433.802753 433.802753 0 0 1-73.191457 30.42354l-80.189844-58.903085-50.543901-37.130327-50.446701 37.130327-80.189844 58.805885a431.081158 431.081158 0 0 1-73.288657-30.32634l-15.06597-98.366208-9.719981-61.916279-61.916279-9.719981-98.074609-14.871571a433.802753 433.802753 0 0 1-30.42354-73.191457l58.903085-80.189844 37.130327-50.543901-37.130327-50.446701-58.319886-80.189844a431.081158 431.081158 0 0 1 30.32634-73.288657l98.269008-15.06597 62.013479-9.719981 9.719981-61.916279 14.968771-98.269008a438.176744 438.176744 0 0 1 73.288657-30.423541l80.189843 58.903085 50.446702 37.130328 50.543901-37.130328 80.189843-58.319886M624.994779 0L511.9514 83.008638 399.005221 0a520.018984 520.018984 0 0 0-169.12767 70.178263l-21.286758 138.41253-138.50973 21.286758A521.962981 521.962981 0 0 0 0 399.005221l83.008638 112.946179L0 624.994779a520.018984 520.018984 0 0 0 70.178263 169.12767l138.509729 21.189559 21.189559 138.509729a520.018984 520.018984 0 0 0 169.12767 70.178263l112.946179-83.008638 113.043379 83.008638a520.018984 520.018984 0 0 0 169.12767-70.178263l21.189559-138.509729 138.509729-21.189559a520.018984 520.018984 0 0 0 70.178263-169.12767l-83.008638-113.043379 83.008638-112.946179a520.018984 520.018984 0 0 0-70.178263-169.12767l-138.509729-21.286758L794.122449 70.081063A521.962981 521.962981 0 0 0 624.994779 0z m0 0" fill="#00C7E3" p-id="21855"></path><path d="M511.9514 728.026578a213.839582 213.839582 0 1 1 213.839582-213.839582 213.839582 213.839582 0 0 1-213.839582 213.839582z m0-341.365733A128.01215 128.01215 0 1 0 639.96355 515.158994a128.10935 128.10935 0 0 0-128.01215-128.498149z m0 0" fill="#1C6EFF" p-id="21856"></path></svg>