<?xml version="1.0" standalone="no"?><!DOCTYPE svg PUBLIC "-//W3C//DTD SVG 1.1//EN" "http://www.w3.org/Graphics/SVG/1.1/DTD/svg11.dtd"><svg t="1693575618502" class="icon" viewBox="0 0 1024 1024" version="1.1" xmlns="http://www.w3.org/2000/svg" p-id="8723" data-spm-anchor-id="a313x.search_index.0.i3.534d3a81lJicrb" xmlns:xlink="http://www.w3.org/1999/xlink" width="200" height="200"><path d="M497.198545 643.630545a43.845818 43.845818 0 1 1 0 87.660607 43.845818 43.845818 0 0 1 0-87.660607z m0 15.515152a28.330667 28.330667 0 1 0 0 56.630303 28.330667 28.330667 0 0 0 0-56.630303z m124.648728-16.849455a43.845818 43.845818 0 1 1-75.931152 43.845819A43.845818 43.845818 0 0 1 621.847273 642.327273z m-189.44-16.042666a43.845818 43.845818 0 1 1-43.814788 75.931151 43.845818 43.845818 0 0 1 43.814788-75.931151z m137.309091 13.436121a28.330667 28.330667 0 1 0 28.330666 49.058909 28.330667 28.330667 0 0 0-28.330666-49.027879z m-183.761455 10.364121a28.330667 28.330667 0 1 0 49.058909 28.330667 28.330667 28.330667 0 0 0-49.027879-28.330667z m283.306667-87.257212a43.845818 43.845818 0 1 1-43.845818 75.931152 43.845818 43.845818 0 0 1 43.845818-75.931152z m-284.268606 16.042667a43.845818 43.845818 0 1 1-75.931152 43.845818 43.845818 43.845818 0 0 1 75.931152-43.845818z m112.205575-188.881455a124.121212 124.121212 0 1 1 0 248.242424 124.121212 124.121212 0 0 1 0-248.242424z m125.610667 196.63903a28.330667 28.330667 0 1 0 49.027879 28.330667 28.330667 28.330667 0 0 0-49.027879-28.330667z m-289.947151-10.364121a28.330667 28.330667 0 1 0 28.330666 49.058909 28.330667 28.330667 0 0 0-28.330666-49.027878z m164.336484-170.759757a108.606061 108.606061 0 1 0 0 217.212121 108.606061 108.606061 0 0 0 0-217.212121z m465.454546 46.545454a31.030303 31.030303 0 0 1 31.030303 31.030303v62.060606a31.030303 31.030303 0 0 1-31.030303 31.030303h-232.727273a31.030303 31.030303 0 0 1-30.968242-28.765091 43.845818 43.845818 0 1 1-3.351273-69.259636l3.413333 2.575515 0.062061-1.241212a31.030303 31.030303 0 0 1 30.844121-27.430788h232.727273z m-698.181818 0a31.030303 31.030303 0 0 1 30.937212 28.734061 43.845818 43.845818 0 1 1 3.382303 69.321697l-3.413333-2.668606-0.093091 1.334303a31.030303 31.030303 0 0 1-30.813091 27.399757h-232.727273a31.030303 31.030303 0 0 1-31.030303-31.030303v-62.060606a31.030303 31.030303 0 0 1 31.030303-31.030303h232.727273z m0 15.515152h-232.727273a15.515152 15.515152 0 0 0-15.515152 15.515151v62.060606a15.515152 15.515152 0 0 0 15.515152 15.515152h232.727273a15.515152 15.515152 0 0 0 15.515151-15.515152v-62.060606a15.515152 15.515152 0 0 0-15.515151-15.515151z m698.181818 0h-232.727273a15.515152 15.515152 0 0 0-15.515151 15.515151v62.060606a15.515152 15.515152 0 0 0 15.515151 15.515152h232.727273a15.515152 15.515152 0 0 0 15.515151-15.515152v-62.060606a15.515152 15.515152 0 0 0-15.515151-15.515151z m-292.088243 18.214788a28.330667 28.330667 0 1 0 0 56.661333 28.330667 28.330667 0 0 0 0-56.661333z m-346.763636 0a28.330667 28.330667 0 1 0 0 56.661333 28.330667 28.330667 0 0 0 0-56.661333z m361.50303-80.275394a43.845818 43.845818 0 1 1-75.931151 43.845818 43.845818 43.845818 0 0 1 75.931151-43.845818zM368.950303 389.430303a43.845818 43.845818 0 1 1-43.845818 75.931152 43.845818 43.845818 0 0 1 43.845818-75.931152z m264.22303 13.436121a28.330667 28.330667 0 1 0 28.330667 49.027879 28.330667 28.330667 0 0 0-28.330667-49.027879z m-310.675394 10.364121a28.330667 28.330667 0 1 0 49.058909 28.330667 28.330667 28.330667 0 0 0-49.027878-28.330667z m283.306667-87.257212a43.845818 43.845818 0 1 1-43.845818 75.931152 43.845818 43.845818 0 0 1 43.845818-75.931152z m-157.323636 16.042667a43.845818 43.845818 0 1 1-75.962182 43.814788 43.845818 43.845818 0 0 1 75.931151-43.814788z m110.871272 7.757576a28.330667 28.330667 0 1 0 49.027879 28.299636 28.330667 28.330667 0 0 0-49.027879-28.299636z m-163.002181-10.364121a28.330667 28.330667 0 1 0 28.299636 49.027878 28.330667 28.330667 0 0 0-28.299636-49.027878z m100.848484-42.542546a43.845818 43.845818 0 1 1 0 87.660606 43.845818 43.845818 0 0 1 0-87.660606z m0 15.515152a28.330667 28.330667 0 1 0 0 56.630303 28.330667 28.330667 0 0 0 0-56.630303z" p-id="8724"></path></svg>