<?xml version="1.0" standalone="no"?><!DOCTYPE svg PUBLIC "-//W3C//DTD SVG 1.1//EN" "http://www.w3.org/Graphics/SVG/1.1/DTD/svg11.dtd"><svg t="1693575700360" class="icon" viewBox="0 0 1024 1024" version="1.1" xmlns="http://www.w3.org/2000/svg" p-id="9800" xmlns:xlink="http://www.w3.org/1999/xlink" width="200" height="200"><path d="M495.979845 1.425644l4.208125 1.705997 425.020617 225.987682c4.606191 2.445262 8.359383 6.369054 10.690912 11.202711a26.272347 26.272347 0 0 1-6.937719 31.731536l-3.753193 2.445262-148.706036 78.987642L925.208587 432.587849c4.606191 2.445262 8.359383 6.369054 10.690912 11.202711a26.272347 26.272347 0 0 1-6.937719 31.731537l-3.753193 2.445261-148.706036 78.987642 22.746621 12.05571h-152.743561l214.045705-113.733106-137.730791-73.24412-222.632555 118.396163a23.201554 23.201554 0 0 1-17.458031 1.819729l-4.208125-1.705996L249.292739 381.862884 107.695022 455.33447l380.039173 196.81514A113.846839 113.846839 0 0 0 483.582937 682.800682v23.25842a23.315287 23.315287 0 0 1-0.852998-0.227466l-4.208125-1.705996-229.229075-118.737363-141.597717 73.471586L483.582937 853.457208v56.127287a23.315287 23.315287 0 0 1-0.852998-0.227466l-4.208125-1.705996L42.184753 681.663351a24.850684 24.850684 0 0 1-11.032112-11.54391 26.272347 26.272347 0 0 1 7.278919-31.67467l3.753193-2.388395 152.402362-79.044509-152.402362-78.873909a24.850684 24.850684 0 0 1-11.032112-11.54391 26.272347 26.272347 0 0 1 7.278919-31.67467l3.753193-2.388395 152.402362-79.044509-152.402362-78.873909a24.850684 24.850684 0 0 1-11.032112-11.54391 26.272347 26.272347 0 0 1 7.278919-31.67467l3.753193-2.388396L478.464947 3.017908a23.201554 23.201554 0 0 1 17.458032-1.592264z m-6.880853 52.885895L107.695022 251.752211l381.40397 197.497538 371.452324-197.497538L489.098992 54.311539z" fill="#31739C" p-id="9801"></path><path d="M953.073198 626.787128v341.199317h-48.791502l-5.800389-5.117989v-241.85345l-119.76096 243.900645-4.549324 2.615862-0.1706 0.454932h-39.92032l-0.227467-0.454932-4.549324-2.615862-119.817827-243.900645 0.056867 241.85345-5.800389 5.117989h-48.734636v-341.199317h59.198082l5.345456 3.12766 134.716864 272.959454 134.205065-272.959454 5.345456-3.12766h59.254948z" fill="#31739C" p-id="9802"></path></svg>