<?xml version="1.0" standalone="no"?><!DOCTYPE svg PUBLIC "-//W3C//DTD SVG 1.1//EN" "http://www.w3.org/Graphics/SVG/1.1/DTD/svg11.dtd"><svg t="1693575496045" class="icon" viewBox="0 0 1146 1024" version="1.1" xmlns="http://www.w3.org/2000/svg" p-id="3993" xmlns:xlink="http://www.w3.org/1999/xlink" width="223.828125" height="200"><path d="M1135.77984 463.83104c-14.336-14.21312-39.60832-14.336-54.272-0.45056l-25.1904 23.9616C1043.0464 213.4016 813.13792 0 528.7936 0 237.1584 0 0 229.66272 0 512S237.19936 1024 528.71168 1024c155.4432 0 302.4896-66.56 402.88256-182.0672a40.96 40.96 0 0 0 10.89536-11.75552c1.76128-4.42368 5.44768-14.336 5.44768-18.67776 0-21.34016-17.94048-38.7072-39.936-38.7072a39.28064 39.28064 0 0 0-32.89088 17.94048c-86.05696 100.06528-212.29568 157.57312-346.39872 157.57312-248.38144 0-450.56-195.74784-450.56-436.30592 0-240.55808 202.17856-436.30592 450.56-436.30592 246.90688 0 447.93856 193.1264 450.56 431.5136l-44.81024-43.54048c-14.45888-14.04928-39.81312-14.1312-54.31296-0.16384a36.4544 36.4544 0 0 0-0.08192 52.67456l94.74048 91.91424a38.54336 38.54336 0 0 0 27.11552 10.8544c10.07616 0 28.2624-2.29376 35.51232-9.17504l97.8944-93.3888a36.0448 36.0448 0 0 0 0.4096-52.55168z" fill="#8B8BFF" p-id="3994"></path><path d="M450.56 245.76m40.96 0l0 0q40.96 0 40.96 40.96l0 286.72q0 40.96-40.96 40.96l0 0q-40.96 0-40.96-40.96l0-286.72q0-40.96 40.96-40.96Z" fill="#8B8BFF" p-id="3995"></path><path d="M696.32 532.48m0 40.96l0 0q0 40.96-40.96 40.96l-163.84 0q-40.96 0-40.96-40.96l0 0q0-40.96 40.96-40.96l163.84 0q40.96 0 40.96 40.96Z" fill="#8B8BFF" p-id="3996"></path></svg>